<svg width="46" height="46" viewBox="0 0 46 46" fill="none" xmlns="http://www.w3.org/2000/svg">
    <path fill-rule="evenodd" clip-rule="evenodd"
        d="M11 23.3044C11 28.7398 14.438 33.3519 19.2065 34.9789C19.8069 35.0922 20.0257 34.7123 20.0257 34.386C20.0257 34.0937 20.0154 33.3202 20.0095 32.2937C16.6716 33.0369 15.9674 30.644 15.9674 30.644C15.4215 29.2225 14.6347 28.8441 14.6347 28.8441C13.5452 28.0804 14.7172 28.0963 14.7172 28.0963C15.9217 28.1832 16.5552 29.3645 16.5552 29.3645C17.6264 31.2445 19.3642 30.7014 20.0478 30.3865C20.1568 29.5911 20.467 29.0495 20.8095 28.7413C18.145 28.4309 15.3434 27.3757 15.3434 22.6609C15.3434 21.3171 15.8112 20.2189 16.5788 19.3586C16.4558 19.0474 16.044 17.7965 16.6967 16.1031C16.6967 16.1031 17.7044 15.7715 19.9962 17.3637C20.9539 17.091 21.9801 16.9543 23.0004 16.9498C24.0199 16.9543 25.0461 17.091 26.0052 17.3637C28.2956 15.7715 29.3019 16.1031 29.3019 16.1031C29.956 17.7965 29.5442 19.0474 29.4212 19.3586C30.1903 20.2189 30.6544 21.3171 30.6544 22.6609C30.6544 27.387 27.8491 28.4271 25.1758 28.7323C25.6067 29.1122 25.9898 29.863 25.9898 31.0104C25.9898 32.6555 25.9758 33.9826 25.9758 34.386C25.9758 34.7153 26.1916 35.0975 26.8009 34.9774C31.5649 33.3474 35 28.7391 35 23.3044C35 16.5087 29.6267 11 22.9989 11C16.3733 11 11 16.5087 11 23.3044Z"
        fill="white" />
    <path
        d="M23 45C35.1503 45 45 35.1503 45 23C45 10.8497 35.1503 1 23 1C10.8497 1 1 10.8497 1 23C1 35.1503 10.8497 45 23 45Z"
        stroke="white" stroke-width="2" />
    <mask id="mask0_12_1909" style="mask-type:luminance" maskUnits="userSpaceOnUse" x="-1" y="-1" width="48"
        height="48">
        <path
            d="M23 45C35.1503 45 45 35.1503 45 23C45 10.8497 35.1503 1 23 1C10.8497 1 1 10.8497 1 23C1 35.1503 10.8497 45 23 45Z"
            stroke="white" stroke-width="4" />
    </mask>
    <g mask="url(#mask0_12_1909)">
    </g>
</svg>